<?xml version="1.0" standalone="no"?>
<!DOCTYPE svg PUBLIC "-//W3C//DTD SVG 20010904//EN"
 "http://www.w3.org/TR/2001/REC-SVG-20010904/DTD/svg10.dtd">
<svg version="1.0" xmlns="http://www.w3.org/2000/svg"
 width="152.000000pt" height="152.000000pt" viewBox="0 0 152.000000 152.000000"
 preserveAspectRatio="xMidYMid meet">
<metadata>
Created by potrace 1.11, written by Peter Selinger 2001-2013
</metadata>
<g transform="translate(0.000000,152.000000) scale(0.100000,-0.100000)"
fill="#000000" stroke="none">
<path d="M190 1164 l0 -356 -75 -173 c-41 -95 -75 -178 -75 -185 0 -6 34 -27
75 -45 l75 -34 0 -165 c0 -153 1 -166 19 -176 30 -15 1023 -14 1039 2 9 9 12
87 12 289 l0 277 106 247 c58 136 103 249 100 253 -9 8 -9 8 -74 -128 -34 -69
-61 -118 -61 -109 -1 9 -31 27 -83 48 -46 19 -101 42 -123 52 -22 9 -62 27
-88 38 l-48 20 -16 -37 c-9 -20 -21 -53 -28 -72 -14 -38 -16 -36 -34 50 -20
94 -26 113 -39 118 -6 2 -12 -2 -12 -9 0 -9 -5 -8 -17 3 -25 21 -131 68 -154
68 -11 0 -19 5 -19 10 0 21 33 74 56 93 37 29 28 40 -12 15 -19 -13 -34 -26
-32 -29 6 -13 -35 -48 -68 -59 -47 -16 -158 -140 -195 -219 -66 -139 -73 -242
-24 -345 28 -60 102 -166 115 -166 5 0 6 33 3 73 -6 84 7 157 42 231 19 41 25
69 25 123 0 59 6 85 40 164 l39 94 -5 -95 c-7 -128 0 -137 65 -77 74 70 85 57
13 -16 -43 -43 -62 -70 -62 -87 0 -39 53 -181 94 -251 55 -96 57 -100 109
-161 44 -53 58 -76 38 -64 -10 7 -33 -42 -26 -55 4 -5 2 -9 -2 -9 -14 0 -128
121 -162 172 -33 50 -94 171 -105 210 -6 22 -7 22 -17 4 -7 -11 -10 -56 -7
-116 3 -83 8 -105 34 -158 25 -50 28 -62 15 -62 -14 0 -14 -2 -1 -9 8 -6 18
-7 24 -4 5 3 6 1 2 -6 -4 -6 0 -14 11 -18 10 -4 32 -16 48 -29 38 -28 177 -99
188 -96 5 1 6 -2 2 -8 -3 -5 -12 -10 -18 -10 -12 0 -152 56 -262 104 -33 15
-72 28 -87 30 -53 6 -204 152 -240 231 -31 69 -32 205 -1 287 36 97 92 179
185 271 l89 88 -38 15 c-21 9 -58 25 -83 35 l-45 20 -17 -22 c-10 -11 -18 -19
-18 -15 0 3 25 69 55 146 30 77 55 143 55 145 0 3 -67 5 -150 5 l-150 0 0
-356z m856 -219 c69 -91 101 -271 70 -395 -20 -79 -95 -232 -137 -280 l-31
-35 31 57 c49 91 71 169 71 250 0 74 -27 207 -55 274 -13 31 -13 47 -3 100 6
35 15 64 19 64 4 0 20 -16 35 -35z"/>
<path d="M740 1419 c457 -195 494 -210 507 -205 10 4 13 36 13 133 0 70 -3
138 -6 151 l-6 22 -372 0 -371 -1 235 -100z"/>
<path d="M650 1422 c0 -5 13 -21 30 -37 16 -15 32 -41 35 -56 8 -34 25 -48 25
-21 0 11 7 25 15 32 19 15 13 25 -33 54 -45 27 -72 38 -72 28z"/>
</g>
</svg>
